<svg xmlns="http://www.w3.org/2000/svg" width="431.65" height="258.047" viewBox="0 0 431.65 258.047">
  <g id="undraw_login_re_4vu2" transform="translate(0)">
    <path id="Path_1690" data-name="Path 1690" d="M915.85,620.29c5.526-4.67,8.883-12.046,8-19.228s-6.333-13.783-13.405-15.308-15.135,2.7-17.283,9.605c-1.182-13.32-2.544-27.2-9.626-38.541a40.816,40.816,0,0,0-29.555-18.935c-12.037-1.315-24.71,3.651-32.216,13.151s-9.345,23.312-4.087,34.219c3.873,8.035,11.009,14.015,18.485,18.879a119.3,119.3,0,0,0,81.594,17.85Z" transform="translate(-814.681 -365.142)" fill="#f2f2f2"/>
    <path id="Path_1691" data-name="Path 1691" d="M881.963,545.732a196.851,196.851,0,0,1,57.84,78.211c.552,1.352-1.644,1.94-2.189.6a194.658,194.658,0,0,0-57.256-77.21c-1.133-.923.481-2.521,1.605-1.605Z" transform="translate(-862.975 -369.063)" fill="#fff"/>
    <path id="Path_1692" data-name="Path 1692" d="M176.183,586.4c-7.59-6.414-12.2-16.546-10.992-26.409s8.7-18.931,18.412-21.026,20.787,3.7,23.738,13.193c1.624-18.295,3.495-37.356,13.222-52.936,8.807-14.107,24.062-24.2,40.594-26.007s33.939,5.015,44.249,18.063,12.835,32.019,5.614,47c-5.32,11.036-15.12,19.249-25.389,25.931a163.858,163.858,0,0,1-112.069,24.517" transform="translate(116.511 -332.518)" fill="#f2f2f2"/>
    <path id="Path_1693" data-name="Path 1693" d="M291.619,483.991a268.088,268.088,0,0,0-37.362,37.1,268.874,268.874,0,0,0-42.082,70.323c-.758,1.857,2.257,2.665,3.007.829A267.365,267.365,0,0,1,293.824,486.2c1.557-1.268-.661-3.462-2.2-2.205Z" transform="translate(113.95 -337.904)" fill="#fff"/>
    <path id="Path_1694" data-name="Path 1694" d="M424.5,447.433H605.595V261.625A71.775,71.775,0,0,0,533.9,189.931H496.194A71.775,71.775,0,0,0,424.5,261.625Z" transform="translate(-302.696 -189.931)" fill="#f2f2f2"/>
    <path id="Path_1695" data-name="Path 1695" d="M424.5,447.435H567.887V261.627A71.139,71.139,0,0,0,554.2,219.482c-.329-.449-.658-.892-1-1.33a71.677,71.677,0,0,0-15.259-14.81c-.327-.238-.656-.472-.989-.706a71.524,71.524,0,0,0-15.615-8.166c-.328-.124-.662-.249-1-.368a71.455,71.455,0,0,0-15.434-3.64c-.326-.045-.661-.079-1-.114a72.579,72.579,0,0,0-15.433,0c-.334.035-.669.07-1,.115a71.44,71.44,0,0,0-15.43,3.639c-.334.119-.668.244-1,.368a71.346,71.346,0,0,0-15.433,8.045c-.333.229-.667.463-1,.7a72.436,72.436,0,0,0-9.121,7.722,71.593,71.593,0,0,0-6.313,7.219c-.338.437-.666.88-.995,1.328A71.139,71.139,0,0,0,424.5,261.627Z" transform="translate(-264.988 -189.933)" fill="#ccc"/>
    <circle id="Ellipse_19" data-name="Ellipse 19" cx="7.938" cy="7.938" r="7.938" transform="translate(163.233 158.52)" fill="#fff"/>
    <path id="Path_1696" data-name="Path 1696" d="M576.507,483.957h6.083l2.894-23.462h-8.978Z" transform="translate(-439.867 -232.021)" fill="#ffb8b8"/>
    <path id="Path_1697" data-name="Path 1697" d="M570.426,504.28H558.695v7.386h19.117A7.386,7.386,0,0,0,570.426,504.28Z" transform="translate(-423.358 -254.082)" fill="#2f2e41"/>
    <path id="Path_1698" data-name="Path 1698" d="M637.507,483.957h6.083l2.894-23.462h-8.978Z" transform="translate(-531.132 -232.021)" fill="#ffb8b8"/>
    <path id="Path_1699" data-name="Path 1699" d="M631.426,504.28H619.7v7.386h19.117a7.386,7.386,0,0,0-7.386-7.386Z" transform="translate(-514.624 -254.082)" fill="#2f2e41"/>
    <path id="Path_1700" data-name="Path 1700" d="M729.334,462.742a5.33,5.33,0,0,0-2.238-7.861L706.418,397.89l-10.174,5.553,23.609,54.463a5.359,5.359,0,0,0,9.481,4.836Z" transform="translate(-562.18 -294.711)" fill="#ffb8b8"/>
    <path id="Path_1701" data-name="Path 1701" d="M806.587,480.791a5.33,5.33,0,0,0,1.435-8.046l6.405-60.287-11.579.529-2.662,59.3a5.359,5.359,0,0,0,6.4,8.5Z" transform="translate(-697.106 -302.051)" fill="#ffb8b8"/>
    <circle id="Ellipse_20" data-name="Ellipse 20" cx="12.186" cy="12.186" r="12.186" transform="translate(115.768 68.251)" fill="#ffb8b8"/>
    <path id="Path_1702" data-name="Path 1702" d="M743.974,453.585h36.738l-.044-.286c-.066-.427-6.548-42.887-1.767-56.777a5.861,5.861,0,0,0-3.011-7.236h0c-6.833-3.218-19.949-7.18-31.019,2.436a14.009,14.009,0,0,0-4.693,11.608Z" transform="translate(-634.414 -288.557)" fill="#fff"/>
    <path id="Path_1703" data-name="Path 1703" d="M725.9,420.825l16.54-3.355L734.689,399.1a6.945,6.945,0,0,0-13.448,3.472Z" transform="translate(-586.66 -292.694)" fill="#fff"/>
    <path id="Path_1704" data-name="Path 1704" d="M811.2,428.361l.994-22.794c.754-4.285-1.7-8.335-5.471-9s-7.458,2.312-8.215,6.629l-3.738,21.3Z" transform="translate(-693.143 -294)" fill="#fff"/>
    <path id="Path_1705" data-name="Path 1705" d="M741.854,517.049c-5.911,22.514-6.556,51.138-4.961,82.361l7.938-.992,14.388-59.538,7.938,60.53,8.931-.5c2.668-32.761,5.266-60.885.992-79.384Z" transform="translate(-631.072 -354.75)" fill="#2f2e41"/>
    <path id="Path_1706" data-name="Path 1706" d="M753.439,343.393a3.936,3.936,0,0,0,6.791-2.187,3.992,3.992,0,0,0,0-.772c-.153-1.465-1-2.8-.8-4.343a2.277,2.277,0,0,1,.417-1.066c1.812-2.426,6.064,1.085,7.774-1.111,1.048-1.346-.184-3.467.621-4.972,1.062-1.986,4.207-1.006,6.179-2.094,2.194-1.21,2.063-4.577.619-6.625a10.421,10.421,0,0,0-7.9-4.022,21.192,21.192,0,0,0-8.927,1.742c-3.236,1.261-6.444,3-8.435,5.848-2.421,3.46-2.654,8.111-1.443,12.157C749.068,338.409,751.582,341.415,753.439,343.393Z" transform="translate(-633.514 -253.538)" fill="#2f2e41"/>
    <path id="Path_1707" data-name="Path 1707" d="M266.086,708.374h366.3a.591.591,0,0,0,0-1.182h-366.3a.591.591,0,0,0,0,1.181Z" transform="translate(-251.192 -450.553)" fill="#3f3d56"/>
    <path id="Path_1708" data-name="Path 1708" d="M500.725,447.764h64.5a3.208,3.208,0,0,0,3.225-3.183V300.614a3.208,3.208,0,0,0-3.225-3.183h-64.5a3.208,3.208,0,0,0-3.225,3.183V444.581A3.208,3.208,0,0,0,500.725,447.764Z" transform="translate(-301.769 -244.095)" fill="#fff"/>
    <rect id="Rectangle_37" data-name="Rectangle 37" width="70.949" height="0.992" transform="translate(195.731 99.919)" fill="#ccc"/>
    <rect id="Rectangle_38" data-name="Rectangle 38" width="70.949" height="0.992" transform="translate(195.483 156.535)" fill="#ccc"/>
    <rect id="Rectangle_39" data-name="Rectangle 39" width="0.992" height="150.829" transform="translate(243.361 53.336)" fill="#ccc"/>
    <rect id="Rectangle_40" data-name="Rectangle 40" width="0.992" height="150.829" transform="translate(218.554 53.336)" fill="#ccc"/>
  </g>
</svg>
