<svg xmlns="http://www.w3.org/2000/svg" width="24" height="24" viewBox="0 0 24 24">
  <path id="home_1_" data-name="home (1)" d="M8.392,22.538v-3.68a1.749,1.749,0,0,1,1.787-1.7H13.81a1.749,1.749,0,0,1,1.8,1.7h0v3.67A1.518,1.518,0,0,0,17.157,24h2.477a4.492,4.492,0,0,0,3.086-1.2A3.993,3.993,0,0,0,24,19.893V9.439a2.911,2.911,0,0,0-1.131-2.283L14.454.809a4.1,4.1,0,0,0-5,.085L1.221,7.156A2.923,2.923,0,0,0,0,9.439V19.882A4.247,4.247,0,0,0,4.366,24h2.42a1.6,1.6,0,0,0,1.1-.424,1.421,1.421,0,0,0,.458-1.037Z" fill="#4e549c"/>
</svg>
