<svg id="undraw_online_payments_re_y8f2" xmlns="http://www.w3.org/2000/svg" width="518.181" height="335.999" viewBox="0 0 518.181 335.999">
  <path id="Path_1606" data-name="Path 1606" d="M176.134,561.005c2.568-26.212,18.089-52.377,42.785-61.529a121.347,121.347,0,0,0,2.177,83.285c4.1,10.257,9.726,21.239,6.4,31.771-2.072,6.553-7.424,11.666-13.471,14.932s-12.809,4.925-19.487,6.551l-1.293,1.128C181.953,613.348,173.567,587.217,176.134,561.005Z" transform="translate(-159.712 -303.128)" fill="#f0f0f0"/>
  <path id="Path_1607" data-name="Path 1607" d="M231.809,499.554a103.719,103.719,0,0,0-24.254,59.026,44.665,44.665,0,0,0,.872,13.967,25.618,25.618,0,0,0,6.679,11.712c2.953,3.079,6.33,5.887,8.483,9.63a15.686,15.686,0,0,1,1.1,12.781c-1.678,5.249-5.142,9.581-8.676,13.7-3.924,4.574-8.073,9.262-9.636,15.231-.189.723-1.3.387-1.111-.335,2.72-10.385,12.572-16.5,17.1-25.908,2.113-4.39,2.917-9.443.71-13.961-1.929-3.951-5.41-6.849-8.426-9.941a27.336,27.336,0,0,1-6.957-11.208,41.292,41.292,0,0,1-1.406-13.882,100.627,100.627,0,0,1,6.55-30.761,105.559,105.559,0,0,1,18.182-30.9c.482-.569,1.269.285.79.85Z" transform="translate(-172.34 -302.718)" fill="#fff"/>
  <path id="Path_1608" data-name="Path 1608" d="M200.346,578.75a15.561,15.561,0,0,1-12.266-15.987.581.581,0,0,1,1.161.028,14.409,14.409,0,0,0,11.44,14.848c.731.154.392,1.264-.335,1.111Z" transform="translate(-165.003 -329.92)" fill="#fff"/>
  <path id="Path_1609" data-name="Path 1609" d="M219.275,632.349a29.993,29.993,0,0,0,12.939-17.617c.192-.723,1.3-.387,1.111.335a31.2,31.2,0,0,1-13.5,18.3c-.634.4-1.179-.627-.549-1.023Z" transform="translate(-178.213 -352.173)" fill="#fff"/>
  <path id="Path_1610" data-name="Path 1610" d="M227.295,534.442a8.808,8.808,0,0,0,8.333-.641c.628-.406,1.173.619.549,1.023a9.87,9.87,0,0,1-9.218.73.6.6,0,0,1-.388-.723.583.583,0,0,1,.723-.388Z" transform="translate(-181.439 -317.746)" fill="#fff"/>
  <path id="Path_1611" data-name="Path 1611" d="M308.788,575.725c-.385.265-.77.53-1.155.8a115.991,115.991,0,0,0-14.525,11.963c-.354.333-.708.675-1.052,1.017a122.292,122.292,0,0,0-25.6,37.036,118.756,118.756,0,0,0-6.064,16.995c-2.192,8.025-3.93,16.9-8.51,23.537a20.365,20.365,0,0,1-1.536,2L207.418,670.2c-.1-.046-.2-.083-.3-.13l-1.712.123c.061-.305.131-.621.192-.926.035-.177.079-.355.113-.532.026-.118.053-.237.069-.345.009-.039.018-.079.026-.109.017-.108.044-.207.061-.305q.578-2.646,1.195-5.294c0-.01,0-.01.009-.02,3.168-13.44,7.486-26.734,13.685-38.95.187-.367.372-.745.579-1.113a113.323,113.323,0,0,1,9.773-15.7,100.18,100.18,0,0,1,6.471-7.8,83.309,83.309,0,0,1,20.433-16.154c15.184-8.53,32.926-12.109,49.509-7.573C307.949,575.482,308.364,575.6,308.788,575.725Z" transform="translate(-172.411 -334.69)" fill="#f0f0f0"/>
  <path id="Path_1612" data-name="Path 1612" d="M308.833,577.548a103.72,103.72,0,0,0-54.9,32.526,44.667,44.667,0,0,0-7.713,11.677,25.617,25.617,0,0,0-1.719,13.372c.5,4.236,1.51,8.512.975,12.8a15.686,15.686,0,0,1-6.817,10.867c-4.5,3.181-9.874,4.555-15.176,5.716-5.887,1.289-12.023,2.535-16.864,6.36-.587.463-1.271-.474-.686-.937,8.424-6.654,19.972-5.6,29.253-10.389,4.33-2.232,8.014-5.784,8.973-10.719.838-4.316-.2-8.726-.743-13.011a27.336,27.336,0,0,1,1.193-13.138,41.293,41.293,0,0,1,7.235-11.931,100.623,100.623,0,0,1,23.75-20.617,105.558,105.558,0,0,1,33.122-13.727c.727-.164.841.992.119,1.155Z" transform="translate(-172.539 -335.967)" fill="#fff"/>
  <path id="Path_1613" data-name="Path 1613" d="M294.614,610.354a15.561,15.561,0,0,1-.169-20.149c.481-.572,1.392.149.91.721a14.409,14.409,0,0,0,.2,18.743C296.042,610.231,295.1,610.913,294.614,610.354Z" transform="translate(-208.887 -341.781)" fill="#fff"/>
  <path id="Path_1614" data-name="Path 1614" d="M271.981,670.445a29.993,29.993,0,0,0,20.938-6.276c.588-.461,1.273.476.686.937a31.2,31.2,0,0,1-21.8,6.487c-.746-.063-.564-1.21.177-1.147Z" transform="translate(-200.559 -373.402)" fill="#fff"/>
  <path id="Path_1615" data-name="Path 1615" d="M345.075,591.617a8.809,8.809,0,0,0,7.04,4.505c.746.054.564,1.2-.178,1.147a9.87,9.87,0,0,1-7.8-4.967.6.6,0,0,1,.126-.811.583.583,0,0,1,.811.126Z" transform="translate(-231.607 -342.373)" fill="#fff"/>
  <path id="Path_1616" data-name="Path 1616" d="M821.541,180.1c-.641-1.892-8.678-8.325-3.753-9.406l4.039,5.385,18.568-18.568,1.867,1.868Z" transform="translate(-433.231 -157.102)" fill="#919afa"/>
  <path id="Path_1617" data-name="Path 1617" d="M821.541,290.294c-.641-1.892-8.678-8.325-3.753-9.406l4.039,5.385L840.395,267.7l1.867,1.867Z" transform="translate(-433.231 -204.157)" fill="#919afa"/>
  <path id="Path_1618" data-name="Path 1618" d="M821.541,402.062c-.641-1.892-8.678-8.325-3.753-9.406l4.039,5.385,18.568-18.568,1.867,1.867Z" transform="translate(-433.231 -251.884)" fill="#919afa"/>
  <circle id="Ellipse_7" data-name="Ellipse 7" cx="5.73" cy="5.73" r="5.73" transform="translate(365.482 86.943)" fill="#3f3d56"/>
  <circle id="Ellipse_8" data-name="Ellipse 8" cx="5.73" cy="5.73" r="5.73" transform="translate(365.482 24.488)" fill="#3f3d56"/>
  <rect id="Rectangle_14" data-name="Rectangle 14" width="92.25" height="1.146" transform="translate(425.931 17.039)" fill="#3f3d56"/>
  <circle id="Ellipse_9" data-name="Ellipse 9" cx="5.73" cy="5.73" r="5.73" transform="translate(368.347 153.52)" fill="#3f3d56"/>
  <rect id="Rectangle_15" data-name="Rectangle 15" width="92.25" height="1.146" transform="translate(425.931 80.178)" fill="#3f3d56"/>
  <rect id="Rectangle_16" data-name="Rectangle 16" width="92.25" height="1.146" transform="translate(425.931 144.219)" fill="#3f3d56"/>
  <path id="Path_1619" data-name="Path 1619" d="M681.609,255.222H652.96V226h19.481v1.146H654.106v26.93h26.357V240.9h1.146Z" transform="translate(-278.827 -96.507)" fill="#3f3d56"/>
  <path id="Path_1620" data-name="Path 1620" d="M681.609,143.222H652.96V114h19.481v1.146H654.106v26.93h26.357V128.9h1.146Z" transform="translate(-278.827 -48.68)" fill="#3f3d56"/>
  <path id="Path_1621" data-name="Path 1621" d="M681.609,29.222H652.96V0h19.481V1.146H654.106v26.93h26.357V14.9h1.146Z" transform="translate(-278.827)" fill="#3f3d56"/>
  <path id="Path_1622" data-name="Path 1622" d="M522.126,328.425s-7.657,32.328,1.7,32.328S555.3,324.171,555.3,324.171l-7.657-9.358L533.9,333.893l-.72-9.722Z" transform="translate(-306.396 -224.273)" fill="#a0616a"/>
  <circle id="Ellipse_10" data-name="Ellipse 10" cx="7.449" cy="7.449" r="7.449" transform="translate(239.42 86.406)" fill="#a0616a"/>
  <path id="Path_1623" data-name="Path 1623" d="M365.173,537.546h9.914L379.8,499.3H365.171Z" transform="translate(-155.935 -213.212)" fill="#a0616a"/>
  <path id="Path_1624" data-name="Path 1624" d="M512.384,728.616h30.49v-.386a11.868,11.868,0,0,0-11.867-11.867h0l-5.569-4.225-10.391,4.226h-2.662Z" transform="translate(-303.496 -393.938)" fill="#2f2e41"/>
  <path id="Path_1625" data-name="Path 1625" d="M179.038,518.956l8.871,4.427,21.3-32.113-13.094-6.534Z" transform="translate(-76.453 -206.992)" fill="#a0616a"/>
  <path id="Path_1626" data-name="Path 1626" d="M318.25,708.965l27.281,13.615.172-.345a11.868,11.868,0,0,0-5.319-15.918h0l-3.1-6.268L326.1,699.19,323.721,698Z" transform="translate(-220.597 -387.902)" fill="#2f2e41"/>
  <rect id="Rectangle_17" data-name="Rectangle 17" width="326.512" height="1.284" transform="translate(0 334.715)" fill="#ccc"/>
  <path id="Path_1627" data-name="Path 1627" d="M372.315,437.122s-3.962,47.642-4.813,57.851a72.6,72.6,0,0,1-4.254,18.716,17.6,17.6,0,0,0-1.7,6.806l-19.284,35.046s-5.893,4.331-5.042,7.734-3.553,5.444-3.553,5.444l20.307,3.914a2.635,2.635,0,0,1,1.7-3.4c2.552-.851,4.584-8.23,4.584-8.23l28.509-46.461L409.189,472s11.91,38.283,14.463,42.537c0,0,9.358,47.642,11.06,51.9s2.552,4.254,1.7,5.955-.851,3.4,0,4.254,17.015,0,17.015,0l-4.254-60.4-7.657-72.313-39.134-11.91Z" transform="translate(-227.181 -274.322)" fill="#2f2e41"/>
  <circle id="Ellipse_11" data-name="Ellipse 11" cx="17.866" cy="17.866" r="17.866" transform="translate(165.584 13.334)" fill="#a0616a"/>
  <path id="Path_1628" data-name="Path 1628" d="M471.373,271.462l-21.268-12.885s-.59-8-6.649-8.378c-3.042-.189-7.608-.478-14.459-.92-1.448-.093-2.425,7.828-4.084,7.721l-22.45,5.955,3.4,57.85s-5.1,22.97-3.4,27.224-4.254,5.955-2.552,6.806,0,6.806,0,6.806,33.179,17.015,69.761,4.254l-3.4-11.06a8.927,8.927,0,0,0-1.7-8.507s3.4-5.1-.851-9.358c0,0,1.7-7.657-2.552-11.06L460.314,314l2.552-5.955Z" transform="translate(-255.336 -196.288)" fill="#e6e6e6"/>
  <path id="Path_1629" data-name="Path 1629" d="M438.25,204.655l-.5-1.16c-.064-.15-6.383-15.086-.782-24.3,2.592-4.265,7.306-6.673,14.01-7.157,10.49-.758,17.669,1.73,21.344,7.391a6.346,6.346,0,0,1-5.349,9.776h-.141l-1.927-2.5-.112.243a3.982,3.982,0,0,1-4.177,2.155c-.319-.023-.6.253-.829.842a1.5,1.5,0,0,1-1.122,1.039c-1.387.27-3.364-1.477-4.249-2.348a1.42,1.42,0,0,1-.662.975c-.932.538-2.384-.165-2.8-.389-3.318.705-5.467.516-6.387-.56-.624,4.414-1.963,12.359-3.569,12.8a.8.8,0,0,1-.876-.383c-.387-.5-.732-.752-.948-.682-.522.166-.831,1.886-.875,3Z" transform="translate(-270.304 -163.249)" fill="#2f2e41"/>
  <path id="Path_1630" data-name="Path 1630" d="M502.823,288.452l8.487-1.379a41.435,41.435,0,0,1,11.931,21.8c2.552,13.612,3.4,16.164,3.4,16.164l-20.418,5.1-11.06-21.269Z" transform="translate(-296.143 -212.428)" fill="#e6e6e6"/>
  <rect id="Rectangle_18" data-name="Rectangle 18" width="66.692" height="134.255" transform="translate(163.777 160.216) rotate(-85.49)" fill="#fff"/>
  <path id="Path_1631" data-name="Path 1631" d="M461.038,327.523a15.69,15.69,0,0,0-9.022-2.474A13.548,13.548,0,0,0,466.3,335.258,15.7,15.7,0,0,0,461.038,327.523Z" transform="translate(-277.717 -228.643)" fill="#919afa"/>
  <path id="Path_1632" data-name="Path 1632" d="M470.4,401.929l-21.491-1.7a4.85,4.85,0,0,0-.763,9.671h0l21.491,1.7a4.85,4.85,0,0,0,.763-9.671Z" transform="translate(-274.155 -260.743)" fill="#919afa"/>
  <path id="Path_1633" data-name="Path 1633" d="M565.327,320.418l-120.492-9.506a10.7,10.7,0,0,0-11.512,9.832l-4.634,58.7a10.711,10.711,0,0,0,9.833,11.518l120.492,9.506a10.7,10.7,0,0,0,11.512-9.832l4.4-55.794.089-1.14.14-1.774A10.7,10.7,0,0,0,565.327,320.418Zm-3.558,51.074-.763,9.671a6.483,6.483,0,0,1-6.957,5.937l-16.12-1.27a6.483,6.483,0,0,1-5.937-6.957l.763-9.671a6.486,6.486,0,0,1,6.957-5.936l16.114,1.272a6.491,6.491,0,0,1,5.942,6.955ZM436.21,366.449a5.928,5.928,0,0,1,6.368-5.438l21.49,1.7a5.926,5.926,0,0,1-.922,11.816l-.011,0-21.49-1.7a5.921,5.921,0,0,1-5.435-6.381Zm4.6-47.833-.147-.6.618-.057c.242-.026,5.958-.539,10.408,2.639s5.814,8.756,5.874,8.989l.141.6-.617.062a16.288,16.288,0,0,1-2.629-.017,15.549,15.549,0,0,1-7.78-2.628c-4.45-3.179-5.814-8.756-5.868-8.99Z" transform="translate(-267.742 -222.593)" fill="#919afa"/>
  <path id="Path_1634" data-name="Path 1634" d="M622.7,427.444l-6.984-.551a1.886,1.886,0,0,0-.3,3.761l6.984.551a1.886,1.886,0,0,0,.3-3.761Z" transform="translate(-346.752 -272.131)" fill="#919afa"/>
  <path id="Path_1635" data-name="Path 1635" d="M645.205,429.219l-6.984-.551a1.886,1.886,0,1,0-.3,3.761l6.984.551a1.886,1.886,0,0,0,.3-3.761Z" transform="translate(-356.362 -272.889)" fill="#919afa"/>
  <path id="Path_1636" data-name="Path 1636" d="M623.366,419l-6.984-.551a1.886,1.886,0,0,0-.3,3.761l6.984.551a1.886,1.886,0,1,0,.3-3.761Z" transform="translate(-347.036 -268.527)" fill="#919afa"/>
  <path id="Path_1637" data-name="Path 1637" d="M645.87,420.78l-6.984-.551a1.886,1.886,0,1,0-.3,3.761l6.984.551a1.886,1.886,0,1,0,.3-3.761Z" transform="translate(-356.646 -269.285)" fill="#919afa"/>
  <path id="Path_1638" data-name="Path 1638" d="M624.032,410.566l-6.984-.551a1.886,1.886,0,0,0-.3,3.761l6.984.551a1.886,1.886,0,1,0,.3-3.761Z" transform="translate(-347.321 -264.924)" fill="#919afa"/>
  <path id="Path_1639" data-name="Path 1639" d="M646.536,412.341l-6.984-.551a1.886,1.886,0,1,0-.3,3.761l6.984.551a1.886,1.886,0,0,0,.3-3.761Z" transform="translate(-356.93 -265.682)" fill="#919afa"/>
  <rect id="Rectangle_19" data-name="Rectangle 19" width="1.146" height="141.877" transform="translate(163.699 117.815) rotate(-85.509)" fill="#fff"/>
  <path id="Path_1640" data-name="Path 1640" d="M493.457,190.558l-.089,1.14-4.922-.386L436,187.192l.095-1.141,52.441,4.121Z" transform="translate(-186.18 -79.448)" fill="#3f3d56"/>
  <path id="Path_1641" data-name="Path 1641" d="M380.126,319.425s-7.657,32.328,1.7,32.328S413.3,315.171,413.3,315.171l-7.657-9.358L391.9,324.893l-.72-9.722Z" transform="translate(-245.759 -220.43)" fill="#a0616a"/>
  <circle id="Ellipse_12" data-name="Ellipse 12" cx="7.449" cy="7.449" r="7.449" transform="translate(158.056 81.249)" fill="#a0616a"/>
  <path id="Path_1642" data-name="Path 1642" d="M399.561,278.252l-5.1-5.1s-10.209,5.955-11.06,11.91-5.1,24.672-5.1,24.672l15.739,1.276,5.1-7.657Z" transform="translate(-246.236 -206.481)" fill="#e6e6e6"/>
</svg>
