<svg xmlns="http://www.w3.org/2000/svg" viewBox="0 0 599.87 604">
    <defs>
        <style>.cls-1{fill:none;}.cls-2{fill:#fff;}</style>
    </defs>
    <g id="Layer_2" data-name="Layer 2">
        <g id="White_variant" data-name="White variant">
            <path class="cls-1"
                  d="M291.56,293.62A802.1,802.1,0,0,0,13.27,212.53l-.35.1A300.28,300.28,0,0,0,123,542.13L315.21,306Q303.66,299.71,291.56,293.62Z"/>
            <path class="cls-1"
                  d="M334.74,204.68c-120-35.59-244.48-13.24-321.47,7.85a802.1,802.1,0,0,1,278.29,81.09q12.1,6.08,23.65,12.37h0q4.69,2.56,9.32,5.16h0A802.66,802.66,0,0,1,536.69,484,299,299,0,0,0,598,333.5a1033.58,1033.58,0,0,0-130.66-75.57C420.42,235.19,369.91,215.11,334.74,204.68Z"/>
            <path class="cls-2"
                  d="M598.89,276C585.65,110.85,441.07-12.27,276,1,149.59,11.11,47.83,98.18,13,212.5l.31,0c77-21.09,201.49-43.44,321.47-7.85,35.17,10.43,85.68,30.51,132.62,53.25A1033.58,1033.58,0,0,1,598,333.5,301.36,301.36,0,0,0,598.89,276Z"/>
            <path class="cls-2"
                  d="M318.87,315.28l-191.53,238A299.95,299.95,0,0,0,531,488.17,802.74,802.74,0,0,0,318.87,315.28Z"/>
        </g>
    </g>
</svg>